Coordinates
version=1
nRows=17
nColumns=36
inDegrees=yes

Units are S.I. units (second, meters, Newtons, ...)
If the header above contains a line with 'inDegrees', this indicates whether rotational values are in degrees (yes) or radians (no).

endheader
time	pelvis_tilt	pelvis_list	pelvis_rotation	pelvis_tx	pelvis_ty	pelvis_tz	hip_flexion_r	hip_adduction_r	hip_rotation_r	knee_angle_r	knee_angle_r_beta	ankle_angle_r	subtalar_angle_r	mtp_angle_r	hip_flexion_l	hip_adduction_l	hip_rotation_l	knee_angle_l	knee_angle_l_beta	ankle_angle_l	subtalar_angle_l	mtp_angle_l	lumbar_extension	lumbar_bending	lumbar_rotation	arm_flex_r	arm_add_r	arm_rot_r	elbow_flex_r	pro_sup_r	arm_flex_l	arm_add_l	arm_rot_l	elbow_flex_l	pro_sup_l
      0.99583330	    -27.30053242	      0.13565092	     -1.18784639	     -0.76547882	      1.07855587	     -0.07011652	     52.28504488	     -7.57141780	     -3.32248278	     69.70002722	      1.21649496	     37.37492828	      9.89822551	     -7.49999987	     50.06786361	     -7.91731900	     -0.00637497	     66.37483197	      1.15845936	     33.65953703	     -2.79632060	     -7.49999987	    -16.94399506	      0.31651432	      1.32783084	     77.21785156	     -7.76717551	     30.96700157	     66.06915392	     81.08202460	     76.77349086	      0.79341290	     29.43327400	     67.71458890	     63.03598644
      1.00000000	    -26.45884270	      0.20002349	     -1.08650085	     -0.76483623	      1.07606089	     -0.06988016	     50.68023105	     -7.77450862	     -3.63334509	     69.60734245	      1.21487731	     36.97415748	      9.83684469	     -7.49999987	     48.68463209	     -7.67877888	      0.07198416	     65.81123808	      1.14862279	     33.47851136	     -3.17436013	     -7.49999987	    -17.49957995	      0.10503928	      2.04686180	     79.95101237	     -7.23819790	     31.05410489	     66.80988111	     78.14483575	     78.34249197	      0.41071263	     31.01922966	     69.94606591	     62.50331146
      1.00416670	    -25.91094643	      0.18400902	     -0.99285654	     -0.75890574	      1.06897789	     -0.06558519	     49.73383442	     -7.85851990	     -3.88992685	     70.26426400	      1.22634275	     37.32495184	      9.17691708	     -7.49999987	     48.11789032	     -7.95373935	      0.08877096	     66.68396677	      1.16385478	     34.57230904	     -2.33669150	     -7.49999987	    -16.88242772	      0.05435633	      3.57714925	     83.75698001	     -7.70114854	     34.03028870	     65.53995706	     77.40286488	     78.98499894	      1.03873721	     31.20792324	     71.34345925	     61.87656110
      1.00833330	    -26.27443313	      0.03387513	     -0.92851957	     -0.75278502	      1.06578261	     -0.07060520	     49.72636833	     -7.97633198	     -4.11319227	     70.41687915	      1.22900639	     37.65563493	      9.62597537	     -7.49999987	     48.45301577	     -8.00638245	      0.32437238	     67.47602470	      1.17767880	     35.50738272	     -1.77425239	     -7.49999987	    -15.21772297	      0.28401222	      3.57571165	     84.43159114	     -8.54134981	     35.06273052	     67.23654352	     77.85524049	     79.78032709	     -0.33006924	     31.86226883	     74.53720048	     61.52027759
      1.01250000	    -26.17191905	     -0.13818918	     -0.56849998	     -0.74650181	      1.07331439	     -0.06718033	     49.14160394	     -7.98261093	     -4.36160156	     70.34442271	      1.22774179	     38.22490599	     10.22100149	     -7.49999987	     47.75174712	     -8.24546889	      0.23467572	     67.05638612	      1.17035472	     35.90242678	     -0.86319529	     -7.49999987	    -14.16571145	      0.33315171	      3.20118761	     83.87386510	     -8.96063433	     34.44778317	     69.09233521	     74.91698101	     80.89889319	     -1.01268505	     32.20087944	     76.62344767	     61.15551804
      1.01666670	    -25.94511244	     -0.30075310	     -0.40088565	     -0.73949975	      1.07449684	     -0.06289291	     48.37171800	     -7.82021673	     -4.68335602	     70.56393046	      1.23157292	     37.95008261	      9.78683758	     -7.49999987	     46.67154313	     -8.76050321	      0.18001255	     66.53013661	      1.16116994	     36.10201150	     -0.17110878	     -7.49999987	    -13.44927162	      0.37493512	      2.20036257	     83.44676532	     -8.64954426	     33.34894705	     71.88673685	     75.69563748	     82.64435659	     -2.48086346	     32.82200902	     79.25951039	     61.05137018
      1.02083330	    -25.20138717	     -0.38452392	     -0.57437193	     -0.72113937	      1.08574226	     -0.06857608	     45.74904753	     -7.62344523	     -4.93429735	     68.77925646	      1.20042448	     37.68736259	     10.69067239	     -7.49999987	     43.74438459	     -8.97986566	     -0.31394227	     64.52390124	      1.12615452	     35.84664313	      0.06954962	     -7.49999987	    -13.03466400	      0.39825418	      1.17685700	     82.12335465	     -8.56597866	     32.91274079	     73.83651861	     76.57981046	     82.82117049	     -3.59583073	     32.89399647	     80.39914910	     60.91038460
      1.02500000	    -24.79077199	     -0.54453295	     -0.63327008	     -0.71464857	      1.08613101	     -0.06437439	     43.57035733	     -7.34920544	     -5.30664611	     66.47951066	      1.16028635	     37.46881797	     10.81529704	     -7.49999987	     41.54553893	     -9.32481941	     -0.69274603	     62.54790227	      1.09166683	     35.62188513	      0.40583457	     -7.49999987	    -12.42777557	      0.36188951	      0.68268287	     82.75637105	     -8.97483334	     32.09401578	     74.45545908	     77.07602004	     83.50333466	     -3.75162292	     31.89110557	     79.89675165	     60.76292716
      1.02916670	    -23.55140075	     -0.43447915	     -0.34016708	     -0.70862978	      1.09787536	     -0.06942210	     40.42173650	     -7.63204951	     -5.60830541	     64.11391124	      1.11899885	     36.52022268	     10.98474581	     -7.49999987	     38.18589365	     -8.98702438	     -1.24985867	     59.88378310	      1.04516918	     34.80433779	      0.91603348	     -7.49999987	    -13.33048798	      0.44855936	      0.94184839	     84.21076261	    -10.64893836	     32.54181936	     75.80326872	     78.35708085	     84.08215967	     -2.85365271	     30.45286185	     79.36374634	     60.61218673
      1.03333330	    -22.41192152	     -0.37826228	     -0.02447497	     -0.70273693	      1.10216897	     -0.07424175	     37.70741383	     -8.19942279	     -6.07156005	     62.29585207	      1.08726773	     36.10396712	     11.41520739	     -7.49999987	     35.44604771	     -8.51363683	     -1.58269200	     57.75316686	      1.00798292	     34.40825228	      0.96502917	     -7.49999987	    -13.90560235	      0.76368481	      0.99917103	     85.77381727	    -10.67160805	     32.74459385	     76.26419507	     78.70401745	     85.21825152	     -2.31731390	     29.85561831	     78.76297250	     60.52252501
      1.03750000	    -21.50860832	     -0.43558150	     -0.07265826	     -0.69686865	      1.10524669	     -0.07010993	     35.74250586	     -8.23085138	     -6.36353050	     61.09152577	      1.06624827	     35.37922865	     10.53607832	     -7.49999987	     33.44701985	     -8.35852469	     -1.42632427	     56.33110351	      0.98316323	     33.61716540	      0.30955542	     -7.49999987	    -14.45583220	      0.65263452	      1.44486426	     87.08106071	    -10.86001298	     31.87270401	     77.15726122	     84.57692689	     86.83561421	     -1.85426834	     29.39770349	     78.21072974	     60.59459104
      1.04166670	    -21.34925336	     -0.54729111	     -0.00140124	     -0.69643305	      1.10499669	     -0.07019395	     34.99128292	     -8.20402186	     -6.70098966	     59.99693706	      1.04714409	     35.68052101	     11.14920784	     -7.49999987	     32.73028235	     -8.45957738	     -1.54463559	     55.68371823	      0.97186422	     33.60271170	      0.44871312	     -7.49999987	    -14.59308323	      0.63620154	      1.28537560	     89.62351866	    -10.19229028	     32.14602860	     76.93233125	     83.47982349	     89.38136164	     -1.60039141	     29.60945483	     78.47713531	     60.58281298
      1.04583330	    -20.85162576	     -0.63233714	     -0.26471747	     -0.69098930	      1.10474370	     -0.07471124	     34.05259943	     -8.21891717	     -6.72664169	     59.70643110	      1.04207381	     35.90856192	     11.41974397	     -7.49999987	     31.79329190	     -8.28028768	     -1.44992752	     55.61899660	      0.97073462	     33.81580629	     -0.14644020	     -7.49999987	    -14.84743753	      0.65432388	      1.16979530	     92.28638791	     -9.98284542	     33.01206727	     77.57044694	     83.79002735	     91.60779692	     -2.19358384	     30.31209996	     79.51543335	     60.67917883
      1.05000000	    -20.76204643	     -0.43430813	     -0.85203754	     -0.68437579	      1.10576451	     -0.07039372	     33.37097402	     -8.20493248	     -6.55788361	     58.94992772	      1.02887033	     36.50753935	     12.47883823	     -7.49999987	     30.73690267	     -8.43181696	     -2.18204543	     54.82265314	      0.95683580	     34.13348628	      0.44060812	     -7.49999987	    -14.43400406	     -0.00420284	      1.25334579	     94.04403651	     -9.93733173	     33.59809929	     77.78443136	     84.10829717	     93.34265866	     -2.93057157	     31.06260105	     81.52366282	     60.82764837
      1.05416670	    -20.66130390	     -0.35442677	     -1.58990060	     -0.68396424	      1.10954640	     -0.06995750	     33.11951123	     -8.06702498	     -6.31603172	     58.61173367	      1.02296773	     36.23422897	     12.27724149	     -7.49999987	     29.92660084	     -8.65654960	     -2.78139597	     54.21446153	      0.94622086	     33.87285456	      0.62724916	     -7.49999987	    -14.00547783	     -0.44814724	      1.44608763	     95.57306366	     -9.56883850	     33.80772342	     77.09850259	     84.46005345	     94.79287532	     -3.81240569	     32.04195412	     82.52291193	     61.01669644
      1.05833330	    -20.47389884	     -0.30537393	     -2.40960536	     -0.68296298	      1.11355696	     -0.06973328	     32.86421701	     -8.03521150	     -6.01891072	     58.36714740	      1.01869890	     35.53037449	     11.93553640	     -7.49999987	     29.23954188	     -8.76372766	     -3.17413870	     53.84083030	      0.93969976	     33.44242200	      0.43478675	     -7.49999987	    -13.74910172	     -0.67729741	      1.58478686	     97.58499508	     -8.69014039	     34.35860016	     75.23797722	     84.57119808	     96.25886500	     -4.66193103	     32.65276440	     82.06765523	     61.24635367
      1.06250000	    -20.64945314	      0.00578674	     -3.13915060	     -0.67754970	      1.11327302	     -0.07312673	     33.16837192	     -8.41401205	     -5.95169273	     58.24723315	      1.01660600	     35.12846080	     13.12043579	     -7.49999987	     28.74525172	     -8.54404002	     -3.75412009	     53.36224077	      0.93134680	     33.09408156	     -0.15508492	     -7.49999987	    -12.83027957	     -0.71751011	      1.88314112	     99.06050482	     -8.66664086	     35.05422636	     74.88466701	     84.82371553	     97.39126857	     -5.03337939	     31.94802188	     82.18166917	     61.34458529
